<?xml version="1.0" encoding="utf-8"?>
<!-- Generator: Adobe Illustrator 27.5.0, SVG Export Plug-In . SVG Version: 6.00 Build 0)  -->
<svg version="1.1" xmlns="http://www.w3.org/2000/svg" xmlns:xlink="http://www.w3.org/1999/xlink" x="0px" y="0px"
	 viewBox="0 0 500 500" style="enable-background:new 0 0 500 500;" xml:space="preserve">
<g id="Background_Simple">
	<g>
		<path style="fill:#92E3A9;" d="M72.503,427.556h378.535c6.214-7.427,42.356-54.451,26.158-125.91
			c-17.69-78.044-28.096-79.084-106.139-127.992c-78.044-48.907-105.099-90.531-194.589-57.232s-92.612,95.734-88.449,145.682
			c4.162,49.948-53.07,88.45-56.191,119.667C29.321,406.829,50.953,423.159,72.503,427.556z"/>
		<path style="opacity:0.7;fill:#FFFFFF;" d="M72.503,427.556h378.535c6.214-7.427,42.356-54.451,26.158-125.91
			c-17.69-78.044-28.096-79.084-106.139-127.992c-78.044-48.907-105.099-90.531-194.589-57.232s-92.612,95.734-88.449,145.682
			c4.162,49.948-53.07,88.45-56.191,119.667C29.321,406.829,50.953,423.159,72.503,427.556z"/>
	</g>
</g>
<g id="Clock">
	<g style="opacity:0.5;">
		<circle style="fill:none;stroke:#000000;stroke-miterlimit:10;" cx="99.801" cy="110.353" r="50"/>
		<circle style="fill:none;stroke:#000000;stroke-miterlimit:10;" cx="99.801" cy="110.353" r="45"/>
		<polyline style="fill:none;stroke:#000000;stroke-miterlimit:10;" points="82.292,121.584 99.801,110.353 80.993,79.575 		"/>
	</g>
</g>
<g id="File_Cabinet">
	<g style="opacity:0.5;">
		<rect x="47.467" y="236.277" style="fill:none;stroke:#000000;stroke-miterlimit:10;" width="118" height="190.667"/>
		<g>
			<rect x="52.134" y="246.943" style="fill:none;stroke:#000000;stroke-miterlimit:10;" width="108.667" height="66"/>
			<rect x="96.134" y="272.943" style="fill:none;stroke:#000000;stroke-miterlimit:10;" width="16.667" height="15.333"/>
		</g>
		<g>
			<rect x="52.134" y="322.943" style="fill:none;stroke:#000000;stroke-miterlimit:10;" width="108.667" height="66"/>
			<rect x="96.134" y="348.943" style="fill:none;stroke:#000000;stroke-miterlimit:10;" width="16.667" height="15.333"/>
		</g>
		<g>
			<rect x="52.134" y="399.61" style="fill:none;stroke:#000000;stroke-miterlimit:10;" width="108.667" height="26.667"/>
		</g>
	</g>
	<g style="opacity:0.5;">
		<polygon style="fill:none;stroke:#000000;stroke-miterlimit:10;" points="83.937,214.632 53.388,214.632 57.207,236.224 
			80.118,236.224 		"/>
		<path style="fill:none;stroke:#000000;stroke-miterlimit:10;" d="M72.548,181.887c0,4.355-4.301,9.032-4.301,9.032
			s-6.595-4.677-6.595-9.032s5.448-10.179,5.448-10.179S72.548,177.532,72.548,181.887z"/>
		<path style="fill:none;stroke:#000000;stroke-miterlimit:10;" d="M57.026,194.031c2.792,3.342,2.488,9.689,2.488,9.689
			s-8.06,0.637-10.851-2.705c-2.791-3.342-2.343-11.305-2.343-11.305S54.235,190.689,57.026,194.031z"/>
		<path style="fill:none;stroke:#000000;stroke-miterlimit:10;" d="M77.883,184.901c3.032-3.126,10.148-2.154,10.148-2.154
			s0.705,6.612-2.326,9.739c-3.032,3.126-10.997,3.515-10.997,3.515S74.852,188.027,77.883,184.901z"/>
		<path style="fill:none;stroke:#000000;stroke-miterlimit:10;" d="M82.61,208.324c-4.071-1.546-6.918-7.226-6.918-7.226
			s6.713-4.506,10.785-2.96c4.071,1.546,7.583,8.706,7.583,8.706S86.681,209.87,82.61,208.324z"/>
		<line style="fill:none;stroke:#000000;stroke-miterlimit:10;" x1="67.961" y1="214.287" x2="67.961" y2="180.453"/>
		<line style="fill:none;stroke:#000000;stroke-miterlimit:10;" x1="67.674" y1="202.531" x2="84.591" y2="187.908"/>
		<line style="fill:none;stroke:#000000;stroke-miterlimit:10;" x1="67.961" y1="210.273" x2="50.757" y2="196.797"/>
		<line style="fill:none;stroke:#000000;stroke-miterlimit:10;" x1="71.975" y1="199.377" x2="85.164" y2="204.538"/>
	</g>
</g>
<g id="Board">
	<g>
		
			<rect x="243.801" y="129.272" style="opacity:0.5;fill:none;stroke:#000000;stroke-miterlimit:10;" width="229.33" height="153.136"/>
		
			<rect x="246.877" y="131.326" style="opacity:0.5;fill:none;stroke:#000000;stroke-miterlimit:10;" width="223.178" height="149.027"/>
		<path style="opacity:0.3;fill:#FFFFFF;stroke:#000000;stroke-miterlimit:10;" d="M273.894,153.648c0,0,2.443,13.19,2.443,17.098
			c0,3.908,0,13.678,0,13.678s9.77,0.488,17.587,0c7.816-0.488,17.098-5.374,17.098-5.374s-3.42-13.19-3.42-16.609
			s-1.954-11.724-1.954-11.724L273.894,153.648z"/>
		<path style="opacity:0.3;fill:#FFFFFF;stroke:#000000;stroke-miterlimit:10;" d="M274.871,235.719c0,0-1.466,11.236-1.466,16.121
			c0,4.885-2.443,12.701-2.443,12.701s11.724,4.397,14.655,4.397c2.931,0,15.633-0.977,15.633-0.977l1.954-28.822
			C303.205,239.138,278.779,236.696,274.871,235.719z"/>
		<path style="opacity:0.3;fill:#FFFFFF;stroke:#000000;stroke-miterlimit:10;" d="M329.096,175.143l5.862,26.868
			c0,0,7.328,0.488,15.144,0.488c7.816,0,21.006-7.328,21.006-7.328s-6.351-12.701-6.351-16.121s-1.954-13.19-1.954-13.19
			s-20.029,6.351-22.96,6.839S329.096,175.143,329.096,175.143z"/>
		<path style="opacity:0.3;fill:#FFFFFF;stroke:#000000;stroke-miterlimit:10;" d="M373.063,167.815c0,0-1.466,17.587-1.466,19.541
			c0,1.954-0.488,9.77-0.488,9.77s9.77,1.465,15.144,1.465c5.374,0,14.655-0.488,14.655-0.488s-0.489-17.098,0.488-18.564
			c0.977-1.465,1.466-9.282,1.466-9.282S375.017,168.304,373.063,167.815z"/>
		<path style="opacity:0.3;fill:#FFFFFF;stroke:#000000;stroke-miterlimit:10;" d="M383.81,206.896c0,0,0,9.77,0,11.724
			c0,1.954-0.977,16.121-0.977,16.121s12.701,0.489,17.587,0c4.885-0.488,14.655-3.42,14.655-3.42l-1.466-15.632l-0.977-10.747
			C412.632,204.942,389.184,208.362,383.81,206.896z"/>
		<path style="opacity:0.3;fill:#FFFFFF;stroke:#000000;stroke-miterlimit:10;" d="M457.576,140.947l-11.236,0.489h-5.862
			c0,0,0,5.862,0,8.305s-0.488,10.259-0.488,11.724c0,1.465,7.816,2.443,11.236,2.443c3.42,0,12.213,0,12.213,0l0.488-23.937
			L457.576,140.947z"/>
		<g style="opacity:0.5;">
			<line style="fill:none;stroke:#000000;stroke-miterlimit:10;" x1="429.242" y1="193.706" x2="450.248" y2="193.706"/>
			<line style="fill:none;stroke:#000000;stroke-miterlimit:10;" x1="429.242" y1="198.592" x2="450.248" y2="198.592"/>
			<line style="fill:none;stroke:#000000;stroke-miterlimit:10;" x1="429.242" y1="203.477" x2="450.248" y2="203.477"/>
			<line style="fill:none;stroke:#000000;stroke-miterlimit:10;" x1="429.242" y1="208.362" x2="450.248" y2="208.362"/>
		</g>
		<g style="opacity:0.5;">
			<line style="fill:none;stroke:#000000;stroke-miterlimit:10;" x1="320.792" y1="138.016" x2="390.161" y2="138.016"/>
			<line style="fill:none;stroke:#000000;stroke-miterlimit:10;" x1="320.792" y1="142.901" x2="390.161" y2="142.901"/>
		</g>
		<g style="opacity:0.5;">
			<line style="fill:none;stroke:#000000;stroke-miterlimit:10;" x1="391.626" y1="244.512" x2="412.632" y2="244.512"/>
			<line style="fill:none;stroke:#000000;stroke-miterlimit:10;" x1="391.626" y1="249.397" x2="412.632" y2="249.397"/>
			<line style="fill:none;stroke:#000000;stroke-miterlimit:10;" x1="391.626" y1="254.282" x2="412.632" y2="254.282"/>
			<line style="fill:none;stroke:#000000;stroke-miterlimit:10;" x1="391.626" y1="259.168" x2="412.632" y2="259.168"/>
		</g>
		<g style="opacity:0.5;">
			<line style="fill:none;stroke:#000000;stroke-miterlimit:10;" x1="261.193" y1="212.27" x2="282.199" y2="212.27"/>
			<line style="fill:none;stroke:#000000;stroke-miterlimit:10;" x1="261.193" y1="217.155" x2="282.199" y2="217.155"/>
			<line style="fill:none;stroke:#000000;stroke-miterlimit:10;" x1="261.193" y1="222.04" x2="282.199" y2="222.04"/>
			<line style="fill:none;stroke:#000000;stroke-miterlimit:10;" x1="261.193" y1="226.926" x2="282.199" y2="226.926"/>
		</g>
		<g style="opacity:0.5;">
			<line style="fill:none;stroke:#000000;stroke-miterlimit:10;" x1="409.213" y1="150.717" x2="430.219" y2="150.717"/>
			<line style="fill:none;stroke:#000000;stroke-miterlimit:10;" x1="409.213" y1="155.602" x2="430.219" y2="155.602"/>
			<line style="fill:none;stroke:#000000;stroke-miterlimit:10;" x1="409.213" y1="160.487" x2="430.219" y2="160.487"/>
			<line style="fill:none;stroke:#000000;stroke-miterlimit:10;" x1="409.213" y1="165.373" x2="430.219" y2="165.373"/>
		</g>
		<path style="opacity:0.5;" d="M332.296,197.367l-12.041,3.44l3.099,2.686c-5.634,3.707-17.565,10.06-25.374,3.609
			c-10.469-8.648-7.651-16.126-7.526-16.44l-0.927-0.376l-0.925-0.381c-0.151,0.367-3.566,9.098,8.104,18.738
			c2.863,2.365,6.132,3.266,9.45,3.266c7.289,0,14.81-4.344,18.782-7.044l3.917,3.395L332.296,197.367z"/>
		<polygon style="opacity:0.5;" points="453.906,176.805 450.427,165.206 444.048,174.485 447.587,175.318 443.91,188.554 
			445.838,189.089 449.536,175.777 		"/>
		<path style="opacity:0.3;fill:#FFFFFF;stroke:#000000;stroke-miterlimit:10;" d="M293.923,155.114
			c0-1.619-1.312-2.931-2.931-2.931c-1.619,0-2.931,1.312-2.931,2.931s1.312,2.931,2.931,2.931
			C292.611,158.045,293.923,156.733,293.923,155.114z"/>
		<path style="opacity:0.3;fill:#92E3A9;stroke:#000000;stroke-miterlimit:10;" d="M347.66,173.677c0-1.619-1.312-2.931-2.931-2.931
			s-2.931,1.312-2.931,2.931s1.312,2.931,2.931,2.931S347.66,175.296,347.66,173.677z"/>
		<circle style="opacity:0.3;fill:#FFFFFF;stroke:#000000;stroke-miterlimit:10;" cx="389.184" cy="169.281" r="2.931"/>
		<circle style="opacity:0.3;fill:#FFFFFF;stroke:#000000;stroke-miterlimit:10;" cx="398.954" cy="209.827" r="2.931"/>
		<path style="opacity:0.3;fill:#92E3A9;stroke:#000000;stroke-miterlimit:10;" d="M293.923,241.092
			c0-1.619-1.312-2.931-2.931-2.931c-1.619,0-2.931,1.312-2.931,2.931c0,1.619,1.312,2.931,2.931,2.931
			C292.611,244.023,293.923,242.711,293.923,241.092z"/>
		<path style="opacity:0.3;fill:#92E3A9;stroke:#000000;stroke-miterlimit:10;" d="M455.133,140.947
			c0-1.619-1.312-2.931-2.931-2.931s-2.931,1.312-2.931,2.931c0,1.619,1.312,2.931,2.931,2.931S455.133,142.566,455.133,140.947z"/>
	</g>
</g>
<g id="Papers">
	<g>
		<g>
			<path style="fill:#B5B5B5;" d="M360.219,408.776v-3.09l2.378-0.501l-2.378-0.594v-0.852l2.155-1.006l-2.155-0.646v-12.686h-2.618
				v-2.614l1.207-0.101l-1.207-0.572v-0.986l2.99,0.443l-2.006-2.452l-0.984-1.477v-0.551l3.213-0.201c0,0-1.82-1.113-3.213-2.112
				V368.19h3.213c0,0-1.779-0.843-3.213-1.557v-3.936h-73.31v6.417l-3.263,1.305l3.263,1.45v0.75
				c-1.013,0.582-2.729,1.635-3.04,2.257c-0.446,0.891-1.337,2.897-1.337,2.897s2.229-0.446,2.897-0.669
				c0.554-0.185,1.255,0.087,1.48,0.187v0.116l-2.594,2.594l2.594,1.135v8.789h5.76v0.618c-0.407,0.101-0.84,0.225-1.223,0.379
				c-1.114,0.446-3.789,2.229-3.789,2.229l3.343-0.223l-1.56,2.452l3.229,0.202v12.148h-7.331v4.424
				c-0.439,0.089-0.953,0.265-1.469,0.609c-0.437,0.291-0.944,0.772-1.431,1.288c-1.003,1.065-1.912,2.278-1.912,2.278l3.789-1.114
				l-2.006,2.674l1.56,0.446l-1.337,2.006l2.807,0.2v4.469h73.31v-2.991c1.627,0.066,2.555,0.104,2.555,0.104l-0.892-0.446
				l2.229-0.669l-2.229-2.229l-0.669-2.674c0,0-0.41-0.065-0.995-0.168v-7.162H360.219z"/>
			<line style="fill:none;stroke:#263238;stroke-miterlimit:10;" x1="287.491" y1="369.527" x2="332.065" y2="369.527"/>
			<line style="fill:none;stroke:#263238;stroke-miterlimit:10;" x1="287.937" y1="373.316" x2="313.344" y2="373.316"/>
			<line style="fill:none;stroke:#263238;stroke-miterlimit:10;" x1="351.677" y1="378.664" x2="307.104" y2="378.664"/>
			<line style="fill:none;stroke:#263238;stroke-miterlimit:10;" x1="292.172" y1="390.03" x2="352.345" y2="390.03"/>
			<line style="fill:none;stroke:#263238;stroke-miterlimit:10;" x1="291.057" y1="382.23" x2="334.739" y2="382.23"/>
			<line style="fill:none;stroke:#263238;stroke-miterlimit:10;" x1="353.46" y1="394.488" x2="321.367" y2="394.488"/>
			<line style="fill:none;stroke:#263238;stroke-miterlimit:10;" x1="352.122" y1="400.505" x2="293.286" y2="400.505"/>
			<line style="fill:none;stroke:#263238;stroke-miterlimit:10;" x1="304.875" y1="405.631" x2="339.642" y2="405.631"/>
			<line style="fill:none;stroke:#263238;stroke-miterlimit:10;" x1="353.905" y1="408.751" x2="295.96" y2="408.751"/>
			<line style="fill:none;stroke:#263238;stroke-miterlimit:10;" x1="287.268" y1="416.997" x2="329.167" y2="416.997"/>
			<line style="fill:none;stroke:#263238;stroke-miterlimit:10;" x1="325.156" y1="412.763" x2="294.4" y2="412.763"/>
			<line style="fill:none;stroke:#263238;stroke-miterlimit:10;" x1="299.08" y1="419.449" x2="343.654" y2="419.449"/>
			<line style="fill:none;stroke:#263238;stroke-miterlimit:10;" x1="350.34" y1="412.317" x2="338.305" y2="412.317"/>
		</g>
		<g>
			<path style="fill:#B5B5B5;" d="M380.219,346.409v-3.09l2.378-0.501l-2.378-0.594v-0.852l2.155-1.006l-2.155-0.647v-12.686h-2.618
				v-2.614l1.207-0.101l-1.207-0.572v-0.985l2.99,0.443l-2.006-2.452l-0.984-1.477v-0.551l3.213-0.201c0,0-1.82-1.113-3.213-2.112
				v-10.591h3.213c0,0-1.779-0.843-3.213-1.557v-3.936h-73.31v6.417l-3.263,1.305l3.263,1.45v0.75
				c-1.013,0.582-2.729,1.635-3.04,2.257c-0.446,0.891-1.337,2.897-1.337,2.897s2.229-0.446,2.897-0.669
				c0.554-0.185,1.255,0.087,1.48,0.187v0.116l-2.594,2.595l2.594,1.135v8.789h5.76v0.618c-0.407,0.101-0.84,0.225-1.223,0.378
				c-1.114,0.446-3.789,2.229-3.789,2.229l3.343-0.223l-1.56,2.452l3.229,0.202v12.148h-7.331v4.424
				c-0.439,0.089-0.953,0.265-1.469,0.609c-0.437,0.291-0.944,0.772-1.431,1.288c-1.003,1.064-1.912,2.278-1.912,2.278l3.789-1.114
				l-2.006,2.674l1.56,0.446l-1.337,2.006l2.807,0.2v4.469h73.31v-2.991c1.627,0.066,2.555,0.104,2.555,0.104l-0.892-0.446
				l2.229-0.669l-2.229-2.229l-0.669-2.674c0,0-0.41-0.065-0.995-0.167v-7.162H380.219z"/>
			<line style="fill:none;stroke:#263238;stroke-miterlimit:10;" x1="307.491" y1="307.16" x2="352.065" y2="307.16"/>
			<line style="fill:none;stroke:#263238;stroke-miterlimit:10;" x1="307.937" y1="310.949" x2="333.344" y2="310.949"/>
			<line style="fill:none;stroke:#263238;stroke-miterlimit:10;" x1="371.677" y1="316.297" x2="327.104" y2="316.297"/>
			<line style="fill:none;stroke:#263238;stroke-miterlimit:10;" x1="312.172" y1="327.664" x2="372.345" y2="327.664"/>
			<line style="fill:none;stroke:#263238;stroke-miterlimit:10;" x1="311.057" y1="319.863" x2="354.739" y2="319.863"/>
			<line style="fill:none;stroke:#263238;stroke-miterlimit:10;" x1="373.46" y1="332.121" x2="341.367" y2="332.121"/>
			<line style="fill:none;stroke:#263238;stroke-miterlimit:10;" x1="372.122" y1="338.138" x2="313.286" y2="338.138"/>
			<line style="fill:none;stroke:#263238;stroke-miterlimit:10;" x1="324.875" y1="343.264" x2="359.642" y2="343.264"/>
			<line style="fill:none;stroke:#263238;stroke-miterlimit:10;" x1="373.905" y1="346.384" x2="315.96" y2="346.384"/>
			<line style="fill:none;stroke:#263238;stroke-miterlimit:10;" x1="307.268" y1="354.63" x2="349.167" y2="354.63"/>
			<line style="fill:none;stroke:#263238;stroke-miterlimit:10;" x1="345.156" y1="350.396" x2="314.4" y2="350.396"/>
			<line style="fill:none;stroke:#263238;stroke-miterlimit:10;" x1="319.08" y1="357.082" x2="363.654" y2="357.082"/>
			<line style="fill:none;stroke:#263238;stroke-miterlimit:10;" x1="370.34" y1="349.95" x2="358.305" y2="349.95"/>
		</g>
	</g>
	<g>
		<path style="fill:#B5B5B5;stroke:#263238;stroke-miterlimit:10;" d="M427.153,408.776v-3.09l2.378-0.501l-2.378-0.594v-0.852
			l2.155-1.006l-2.155-0.646v-12.686h-2.618v-2.614l1.207-0.101l-1.207-0.572v-0.986l2.99,0.443l-2.006-2.452l-0.984-1.477v-0.551
			l3.213-0.201c0,0-1.82-1.113-3.213-2.112V368.19h3.213c0,0-1.779-0.843-3.213-1.557v-3.936h-73.31v6.417l-3.263,1.305l3.263,1.45
			v0.75c-1.013,0.582-2.729,1.635-3.04,2.257c-0.446,0.891-1.337,2.897-1.337,2.897s2.229-0.446,2.897-0.669
			c0.554-0.185,1.254,0.087,1.48,0.187v0.116l-2.594,2.594l2.594,1.135v8.789h5.76v0.618c-0.407,0.101-0.84,0.225-1.223,0.379
			c-1.114,0.446-3.789,2.229-3.789,2.229l3.343-0.223l-1.56,2.452l3.229,0.202v12.148h-7.331v4.424
			c-0.439,0.089-0.953,0.265-1.469,0.609c-0.437,0.291-0.944,0.772-1.431,1.288c-1.003,1.065-1.912,2.278-1.912,2.278l3.789-1.114
			l-2.006,2.674l1.56,0.446l-1.337,2.006l2.807,0.2v4.469h73.31v-2.991c1.627,0.066,2.555,0.104,2.555,0.104l-0.892-0.446
			l2.229-0.669l-2.229-2.229l-0.669-2.674c0,0-0.41-0.065-0.995-0.168v-7.162H427.153z"/>
		<line style="fill:none;stroke:#263238;stroke-miterlimit:10;" x1="354.425" y1="369.527" x2="398.998" y2="369.527"/>
		<line style="fill:none;stroke:#263238;stroke-miterlimit:10;" x1="354.871" y1="373.316" x2="380.277" y2="373.316"/>
		<line style="fill:none;stroke:#263238;stroke-miterlimit:10;" x1="418.61" y1="378.664" x2="374.037" y2="378.664"/>
		<line style="fill:none;stroke:#263238;stroke-miterlimit:10;" x1="359.105" y1="390.03" x2="419.279" y2="390.03"/>
		<line style="fill:none;stroke:#263238;stroke-miterlimit:10;" x1="357.991" y1="382.23" x2="401.672" y2="382.23"/>
		<line style="fill:none;stroke:#263238;stroke-miterlimit:10;" x1="420.393" y1="394.488" x2="388.301" y2="394.488"/>
		<line style="fill:none;stroke:#263238;stroke-miterlimit:10;" x1="419.056" y1="400.505" x2="360.219" y2="400.505"/>
		<line style="fill:none;stroke:#263238;stroke-miterlimit:10;" x1="371.809" y1="405.631" x2="406.576" y2="405.631"/>
		<line style="fill:none;stroke:#263238;stroke-miterlimit:10;" x1="420.839" y1="408.751" x2="362.894" y2="408.751"/>
		<line style="fill:none;stroke:#263238;stroke-miterlimit:10;" x1="354.202" y1="416.997" x2="396.101" y2="416.997"/>
		<line style="fill:none;stroke:#263238;stroke-miterlimit:10;" x1="392.089" y1="412.763" x2="361.334" y2="412.763"/>
		<line style="fill:none;stroke:#263238;stroke-miterlimit:10;" x1="366.014" y1="419.449" x2="410.587" y2="419.449"/>
		<line style="fill:none;stroke:#263238;stroke-miterlimit:10;" x1="417.273" y1="412.317" x2="405.238" y2="412.317"/>
	</g>
	<g>
		<g>
			<path style="fill:#FFFFFF;stroke:#263238;stroke-miterlimit:10;" d="M445.553,408.776v-3.09l2.378-0.501l-2.378-0.594v-0.852
				l2.155-1.006l-2.155-0.646v-12.686h-2.618v-2.614l1.207-0.101l-1.207-0.572v-0.986l2.99,0.443l-2.006-2.452l-0.984-1.477v-0.551
				l3.213-0.201c0,0-1.82-1.113-3.213-2.112V368.19h3.213c0,0-1.779-0.843-3.213-1.557v-3.936h-73.31v6.417l-3.263,1.305l3.263,1.45
				v0.75c-1.013,0.582-2.729,1.635-3.04,2.257c-0.446,0.891-1.337,2.897-1.337,2.897s2.229-0.446,2.897-0.669
				c0.554-0.185,1.254,0.087,1.48,0.187v0.116l-2.594,2.594l2.594,1.135v8.789h5.76v0.618c-0.407,0.101-0.84,0.225-1.223,0.379
				c-1.114,0.446-3.789,2.229-3.789,2.229l3.343-0.223l-1.56,2.452l3.229,0.202v12.148h-7.331v4.424
				c-0.439,0.089-0.953,0.265-1.469,0.609c-0.437,0.291-0.944,0.772-1.431,1.288c-1.003,1.065-1.913,2.278-1.913,2.278l3.789-1.114
				l-2.006,2.674l1.56,0.446l-1.337,2.006l2.806,0.2v4.469h73.31v-2.991c1.627,0.066,2.555,0.104,2.555,0.104l-0.892-0.446
				l2.229-0.669l-2.229-2.229l-0.669-2.674c0,0-0.41-0.065-0.995-0.168v-7.162H445.553z"/>
			<line style="fill:none;stroke:#263238;stroke-miterlimit:10;" x1="372.825" y1="369.527" x2="417.398" y2="369.527"/>
			<line style="fill:none;stroke:#263238;stroke-miterlimit:10;" x1="373.27" y1="373.316" x2="398.677" y2="373.316"/>
			<line style="fill:none;stroke:#263238;stroke-miterlimit:10;" x1="437.01" y1="378.664" x2="392.437" y2="378.664"/>
			<line style="fill:none;stroke:#263238;stroke-miterlimit:10;" x1="377.505" y1="390.03" x2="437.679" y2="390.03"/>
			<line style="fill:none;stroke:#263238;stroke-miterlimit:10;" x1="376.391" y1="382.23" x2="420.072" y2="382.23"/>
			<line style="fill:none;stroke:#263238;stroke-miterlimit:10;" x1="438.793" y1="394.488" x2="406.7" y2="394.488"/>
			<line style="fill:none;stroke:#263238;stroke-miterlimit:10;" x1="437.456" y1="400.505" x2="378.619" y2="400.505"/>
			<line style="fill:none;stroke:#263238;stroke-miterlimit:10;" x1="390.208" y1="405.631" x2="424.975" y2="405.631"/>
			<line style="fill:none;stroke:#263238;stroke-miterlimit:10;" x1="439.239" y1="408.751" x2="381.294" y2="408.751"/>
			<line style="fill:none;stroke:#263238;stroke-miterlimit:10;" x1="372.602" y1="416.997" x2="414.501" y2="416.997"/>
			<line style="fill:none;stroke:#263238;stroke-miterlimit:10;" x1="410.489" y1="412.763" x2="379.734" y2="412.763"/>
			<line style="fill:none;stroke:#263238;stroke-miterlimit:10;" x1="384.414" y1="419.449" x2="428.987" y2="419.449"/>
			<line style="fill:none;stroke:#263238;stroke-miterlimit:10;" x1="435.673" y1="412.317" x2="423.638" y2="412.317"/>
		</g>
		<g>
			<path style="fill:#FFFFFF;stroke:#263238;stroke-miterlimit:10;" d="M445.553,347.443v-3.091l2.378-0.501l-2.378-0.595v-0.851
				l2.155-1.006l-2.155-0.647v-12.686h-2.618v-2.614l1.207-0.101l-1.207-0.572v-0.986l2.99,0.443l-2.006-2.452l-0.984-1.477v-0.551
				l3.213-0.201c0,0-1.82-1.113-3.213-2.112v-10.592h3.213c0,0-1.779-0.843-3.213-1.557v-3.936h-73.31v6.417l-3.263,1.305
				l3.263,1.45v0.75c-1.013,0.582-2.729,1.635-3.04,2.257c-0.446,0.892-1.337,2.897-1.337,2.897s2.229-0.446,2.897-0.669
				c0.554-0.185,1.254,0.087,1.48,0.187v0.116l-2.594,2.594l2.594,1.135v8.789h5.76v0.618c-0.407,0.1-0.84,0.225-1.223,0.378
				c-1.114,0.446-3.789,2.229-3.789,2.229l3.343-0.223l-1.56,2.452l3.229,0.202v12.148h-7.331v4.425
				c-0.439,0.089-0.953,0.265-1.469,0.609c-0.437,0.291-0.944,0.772-1.431,1.288c-1.003,1.064-1.913,2.278-1.913,2.278l3.789-1.114
				l-2.006,2.674l1.56,0.446l-1.337,2.006l2.806,0.2v4.469h73.31v-2.99c1.627,0.066,2.555,0.104,2.555,0.104l-0.892-0.446
				l2.229-0.669l-2.229-2.229l-0.669-2.674c0,0-0.41-0.065-0.995-0.167v-7.162H445.553z"/>
			<line style="fill:none;stroke:#263238;stroke-miterlimit:10;" x1="372.825" y1="308.194" x2="417.398" y2="308.194"/>
			<line style="fill:none;stroke:#263238;stroke-miterlimit:10;" x1="373.27" y1="311.982" x2="398.677" y2="311.982"/>
			<line style="fill:none;stroke:#263238;stroke-miterlimit:10;" x1="437.01" y1="317.331" x2="392.437" y2="317.331"/>
			<line style="fill:none;stroke:#263238;stroke-miterlimit:10;" x1="377.505" y1="328.697" x2="437.679" y2="328.697"/>
			<line style="fill:none;stroke:#263238;stroke-miterlimit:10;" x1="376.391" y1="320.897" x2="420.072" y2="320.897"/>
			<line style="fill:none;stroke:#263238;stroke-miterlimit:10;" x1="438.793" y1="333.155" x2="406.7" y2="333.155"/>
			<line style="fill:none;stroke:#263238;stroke-miterlimit:10;" x1="437.456" y1="339.172" x2="378.619" y2="339.172"/>
			<line style="fill:none;stroke:#263238;stroke-miterlimit:10;" x1="390.208" y1="344.298" x2="424.975" y2="344.298"/>
			<line style="fill:none;stroke:#263238;stroke-miterlimit:10;" x1="439.239" y1="347.418" x2="381.294" y2="347.418"/>
			<line style="fill:none;stroke:#263238;stroke-miterlimit:10;" x1="372.602" y1="355.664" x2="414.501" y2="355.664"/>
			<line style="fill:none;stroke:#263238;stroke-miterlimit:10;" x1="410.489" y1="351.43" x2="379.734" y2="351.43"/>
			<line style="fill:none;stroke:#263238;stroke-miterlimit:10;" x1="384.414" y1="358.116" x2="428.987" y2="358.116"/>
			<line style="fill:none;stroke:#263238;stroke-miterlimit:10;" x1="435.673" y1="350.984" x2="423.638" y2="350.984"/>
		</g>
	</g>
</g>
<g id="Device">
	<g>
		<polygon style="fill:#FFFFFF;stroke:#263238;stroke-miterlimit:10;" points="314.261,423.924 228.765,423.924 228.765,419.365 
			314.261,414.805 		"/>
		<g>
			<g>
				<path style="fill:#FFFFFF;stroke:#263238;stroke-miterlimit:10;" d="M363.029,406.968l-22.034-54.535l-3.729,1.506v0.887
					l21.726,53.774c0.402,0.994,0.606,2.042,0.606,3.117c0,4.588-3.733,8.321-8.322,8.321h-28.83v4.354h28.83
					c6.989,0,12.676-5.686,12.676-12.675C363.951,410.08,363.641,408.483,363.029,406.968z"/>
			</g>
			
				<rect x="337.265" y="276.301" transform="matrix(0.9928 0.1198 -0.1198 0.9928 43.2361 -38.3622)" style="fill:#FFFFFF;stroke:#263238;stroke-miterlimit:10;" width="6.84" height="128.244"/>
		</g>
		<path style="fill:#FFFFFF;stroke:#263238;stroke-miterlimit:10;" d="M323.172,424.034h-37.026v-4.359
			c0-4.711,3.566-8.657,8.253-9.131l18.67-1.891c5.407-0.547,10.103,3.697,10.103,9.131V424.034z"/>
	</g>
</g>
<g id="Character">
	<g>
		<g>
			<g>
				<path style="fill:#263238;stroke:#263238;stroke-miterlimit:10;" d="M158.818,244.4c0,0-7.886-19.092-15.357-20.752
					c-7.471-1.66-39.014,14.111-30.298,28.638c8.716,14.527,17.847,13.696,26.148,9.961
					C147.612,258.511,158.818,244.4,158.818,244.4z"/>
				<path style="fill:#263238;stroke:#263238;stroke-miterlimit:10;" d="M124.784,230.703c0,0-8.301-2.905-12.451-2.905
					c-4.15,0-4.98,13.281-4.98,13.281S110.258,228.213,124.784,230.703z"/>
			</g>
			<g>
				<path style="fill:#FFFFFF;stroke:#263238;stroke-miterlimit:10;" d="M214.433,258.926c0,0,4.565,6.226,5.811,11.621
					c1.245,5.396-2.075,11.206-0.83,15.772c1.245,4.565,7.056,8.716,6.641,11.621c-0.415,2.905-8.716,7.471-8.716,7.471
					s-7.056,17.017-9.961,18.262c-2.905,1.245-12.866-1.66-17.432-3.735c-4.565-2.075-10.376-1.66-10.376-1.66l-26.978-13.696
					c0,0,2.905-5.396-0.415-13.281s-4.98-21.167,15.357-34.448C187.871,243.57,214.433,258.926,214.433,258.926z"/>
				<path style="fill:none;stroke:#263238;stroke-miterlimit:10;" d="M210.698,304.581c0,0-1.66-2.905-5.396-1.66"/>
				<path style="fill:#263238;" d="M214.018,284.243c0,2.063-0.65,3.735-1.453,3.735c-0.802,0-1.453-1.672-1.453-3.735
					s0.65-3.735,1.453-3.735C213.368,280.508,214.018,282.181,214.018,284.243z"/>
				<path style="fill:none;stroke:#263238;stroke-miterlimit:10;" d="M209.868,273.867c0,0,2.905-2.905,5.811,0.415"/>
				<ellipse style="fill:none;stroke:#263238;stroke-miterlimit:10;" cx="212.981" cy="280.923" rx="7.263" ry="11.621"/>
				<line style="fill:#FFFFFF;stroke:#263238;stroke-miterlimit:10;" x1="205.717" y1="280.923" x2="173.344" y2="284.243"/>
			</g>
			<path style="fill:#263238;stroke:#263238;stroke-miterlimit:10;" d="M166.703,292.129c0,0-7.886,8.716-12.451,8.716
				c-4.565,0-13.281-5.81-17.432-12.036c-4.151-6.226,4.15-21.997,8.716-31.128c4.566-9.131,12.866-24.488,29.883-27.808
				c17.017-3.32,23.657-2.075,38.184,5.396c14.526,7.471,12.866,18.262,10.376,21.582c-2.49,3.32-6.226,6.226-6.226,6.226
				s9.131-4.98,12.451-3.32c3.32,1.66,3.32,3.735,3.32,3.735s-10.376,0.415-11.621,0.415c-1.245,0-5.396,2.075-5.396,2.075
				s-8.716,2.075-13.281,0.83c-4.565-1.245-10.791-5.811-11.206-0.83c-0.415,4.98-6.641,13.696-9.131,14.526
				c-2.49,0.83-6.226,1.245-9.546,3.735C170.024,286.734,166.703,292.129,166.703,292.129z"/>
			<path style="fill:#FFFFFF;stroke:#263238;stroke-miterlimit:10;" d="M176.249,288.394c0,0-5.811-12.036-11.621-7.056
				s0.415,17.847,2.905,19.092c2.49,1.245,7.471-2.075,7.471-2.075s0.415,5.396,2.075,7.886"/>
		</g>
		<g>
			<path style="fill:#92E3A9;stroke:#263238;stroke-miterlimit:10;" d="M143.046,318.277c0,0,7.056-7.056,7.056-11.621
				c0-4.565,2.49-8.301,18.262-0.83c15.771,7.471,21.167,16.187,17.847,18.677c-3.32,2.49-10.376,4.98-12.036,6.641
				c-1.66,1.66-7.471,9.546-7.471,9.546S156.742,318.277,143.046,318.277z"/>
			<g>
				<path style="fill:none;stroke:#263238;stroke-miterlimit:10;" d="M160.237,303.384c0,0-3.514,0.703-2.811,3.162s0,4.568,0,4.568
					l-2.108,3.162"/>
				<path style="fill:none;stroke:#263238;stroke-miterlimit:10;" d="M168.364,305.826c0,0-3.911,4.234-3.559,5.639
					c0.351,1.405,1.054,3.514-0.351,4.216c-1.405,0.703-3.865,1.405-3.865,1.405"/>
				<path style="fill:none;stroke:#263238;stroke-miterlimit:10;" d="M169.721,322.116c-0.729,1.07-1.404,1.997-1.404,1.997"/>
				<path style="fill:none;stroke:#263238;stroke-miterlimit:10;" d="M175.696,310.762c0,0,0.703,3.162-0.703,5.27
					c-1.405,2.108-3.162,2.108-3.513,3.162"/>
				<path style="fill:none;stroke:#263238;stroke-miterlimit:10;" d="M183.426,316.384c0,0-1.405,3.865-2.459,5.27
					c-1.054,1.405-4.919,1.054-5.622,2.811c-0.703,1.757-2.811,3.513-2.811,3.513"/>
			</g>
		</g>
		<g>
			<g>
				<path style="fill:none;stroke:#263238;stroke-miterlimit:10;" d="M264.179,382.372c-3.09-1.236-11.741-2.472-11.741-2.472"/>
				<path style="fill:none;stroke:#263238;stroke-miterlimit:10;" d="M248.73,378.664c0,0,6.797-1.854,11.123,0"/>
			</g>
			<g>
				<path style="fill:#FFFFFF;stroke:#263238;stroke-miterlimit:10;" d="M262.801,393.039c0,0,3.667,6.333,4.667,8.333
					s1.333,3,0.333,3s-4.667-1.667-5-3.667c-0.333-2-1-3-1-3s1.88,7.333,1.333,7.667c-2.175,1.327-3.667-1-3.667-1l-2.667-8
					c0,0-1,4-1.333,5s-2.333-1.667-2.333-3.667s0.333-4.667,0.333-4.667l-2-1.667c0,0,3-3,6.333-3
					C261.134,388.372,262.801,393.039,262.801,393.039z"/>
				<path style="fill:#FFFFFF;stroke:#263238;stroke-miterlimit:10;" d="M211.467,383.039c0,0,0.474-0.032,1.305-0.088
					c5.746-0.386,28.572-1.912,30.028-1.912c1.667,0,11.333,5.333,11.333,5.333s5.667-0.333,9,0.333
					c3.333,0.667,6.333,4.667,7.667,6c1.333,1.333,5.667,3,3.333,3.667c-2.333,0.667-3.333,1-4.667,0.667
					c-1.333-0.333-6.667-4-6.667-4l-8.667-1.333c0,0-8,4.333-9,4.667c-1,0.333,1.333,2.667,3.667,4.333c2.333,1.667,6,4,5.667,6.667
					c-0.333,2.667-1.333,2.333-4,0c-2.667-2.333-5.333-3.667-9.333-6.333c-4-2.667-9.333-7.667-10.333-8.667s-2-2-2-2
					s-23.333,7.667-31.333,10c-8,2.333-17.333,4-22.333,4.667c-5,0.667-14.667-1.333-17.333-3.333c-2.667-2-9.667-8.333-9.667-8.333
					l12-24c0,0,14.333,13.333,20,14.667C185.801,385.372,211.467,383.039,211.467,383.039z"/>
				<path style="fill:#92E3A9;stroke:#263238;stroke-miterlimit:10;" d="M180.134,384.039c-5.667-1.333-20-14.667-20-14.667l-12,24
					c0,0,7,6.333,9.667,8.333c2.667,2,12.333,4,17.333,3.333c4.58-0.611,12.793-2.062,20.29-4.095
					c0.181-1.535,0.317-3.175,0.377-4.905c0.13-3.774,0.006-8.054-0.194-11.873C189.172,384.498,182.662,384.634,180.134,384.039z"
					/>
			</g>
		</g>
		<path style="fill:#92E3A9;stroke:#263238;stroke-miterlimit:10;" d="M171.83,344.586c-0.093-6.886-2.161-13.654-6.233-19.207
			c-2.029-2.767-4.565-5.303-7.609-6.687c-13.857-6.299-23.601-1.736-32.373,9.961c-17.432,23.242-29.35,50.862-34.033,62.256
			c-9.781,23.797-11.621,32.373-11.621,32.373h65.576c0,0-3.32-8.301-3.32-10.376c0-2.075,3.32-6.226,3.32-6.226
			s19.922-7.056,23.657-17.847C171.942,380.894,171.994,356.777,171.83,344.586z"/>
	</g>
	<g>
		<g>
			<path style="fill:none;stroke:#263238;stroke-miterlimit:10;" d="M268.504,350.24c0,0,9.269,1.854,15.448,4.326"/>
			<path style="fill:none;stroke:#263238;stroke-miterlimit:10;" d="M278.391,348.386c0,0,6.179,2.472,10.505,6.179"/>
		</g>
		<path style="fill:#FFFFFF;stroke:#263238;stroke-miterlimit:10;" d="M129.35,361.441c0,0,20.337,55.616,25.733,57.276
			c5.395,1.66,10.791-0.83,13.281-2.49c2.49-1.66,74.707-52.71,74.707-52.71s12.866,7.471,15.356,7.471
			c2.49,0,7.471,7.471,8.716,9.961c1.245,2.49,2.49,3.735,2.905,1.245c0.415-2.49-2.905-7.886-3.735-9.546
			c-0.83-1.66-1.245-2.905-1.245-2.905s2.905,0.415,4.15,1.245c1.245,0.83,5.396,6.226,6.641,7.886c1.245,1.66,4.15,3.32,4.15,0.83
			c0-2.49-4.565-7.056-5.396-9.131s-2.49-2.905-2.49-2.905s7.886,1.245,9.961,2.075c2.075,0.83,3.32,5.811,5.811,6.226
			c2.49,0.415-1.245-4.98-2.075-7.471c-0.83-2.49-11.206-5.81-11.206-5.81s6.641-0.83,8.716-0.83c2.075,0,6.641,4.15,7.886,4.15
			c1.245,0,1.245-1.245-2.075-3.735c-3.32-2.49-9.131-4.98-11.621-4.98c-2.49,0-4.98-0.415-7.471-0.83
			c-2.49-0.415-21.167-4.15-24.902-4.15c-3.735,0-59.766,26.148-59.766,26.148l-3.629-3.225c-0.07-0.062-0.156-0.101-0.249-0.112
			l-0.615-0.074c-2.099-0.253-4.111,0.483-5.865,1.663c-0.299,0.201-0.6,0.171-0.849-0.327c-0.83-1.66-6.226-34.863-9.131-41.919
			c-2.905-7.056-12.036-22.827-27.808-13.696"/>
	</g>
	<g>
		<path style="fill:#92E3A9;stroke:#263238;stroke-miterlimit:10;" d="M129.35,361.441c0,0,20.337,55.616,25.733,57.276
			c5.395,1.66,10.791-0.83,13.281-2.49c1.313-0.875,22.018-15.487,41.297-29.103l-7.183-16.56
			c-9.647,4.417-17.098,7.895-17.098,7.895l-3.629-3.225c-0.07-0.062-0.156-0.101-0.249-0.112l-0.615-0.074
			c-2.099-0.253-4.111,0.483-5.865,1.663c-0.299,0.201-0.6,0.171-0.85-0.327c-0.83-1.66-6.226-34.863-9.131-41.919
			c-2.905-7.056-12.036-22.827-27.808-13.696"/>
		<path style="fill:none;stroke:#263238;stroke-miterlimit:10;" d="M174.231,377.73c0,0-4.761,5.952-10.416,10.713"/>
		<path style="fill:none;stroke:#263238;stroke-miterlimit:10;" d="M171.85,380.409c0,0-6.845,2.381-12.499,3.869"/>
	</g>
	<path style="fill:#263238;stroke:#263238;stroke-miterlimit:10;" d="M79.96,423.282L68.551,322.876
		c-0.585-5.148-5.306-8.797-10.436-8.064v0c-4.971,0.71-8.453,5.277-7.821,10.259l12.476,98.368L79.96,423.282z"/>
</g>
<g id="Mug">
	<g>
		<path style="fill:#FFFFFF;stroke:#263238;stroke-miterlimit:10;" d="M134.911,396.916c0,0-2.615-2.79-6.102-0.872
			c-3.487,1.918-4.185,9.764-2.615,15.343c1.569,5.579,8.718,2.441,8.718,2.441l-0.174-3.661c0,0-5.928,0.697-6.277-2.441
			c-0.349-3.138-0.523-7.148,2.964-7.148c3.487,0,4.533,0.872,4.533,0.872L134.911,396.916z"/>
		<rect x="134.335" y="390.082" style="fill:#FFFFFF;stroke:#263238;stroke-miterlimit:10;" width="27.691" height="33.138"/>
	</g>
</g>
<g id="Table">
	<rect x="29.976" y="423.039" style="fill:#263238;stroke:#263238;stroke-miterlimit:10;" width="430.158" height="9.712"/>
</g>
</svg>
