<svg xmlns="http://www.w3.org/2000/svg" xmlns:xlink="http://www.w3.org/1999/xlink" width="325.584" height="276.081" viewBox="0 0 325.584 276.081">
  <defs>
    <linearGradient id="linear-gradient" x1="13.913" y1="0.67" x2="14.02" y2="2.948" gradientUnits="objectBoundingBox">
      <stop offset="0.01"/>
      <stop offset="0.08" stop-opacity="0.69"/>
      <stop offset="0.21" stop-opacity="0.322"/>
      <stop offset="1" stop-opacity="0"/>
    </linearGradient>
    <linearGradient id="linear-gradient-2" x1="3.679" y1="-1.066" x2="-3.254" y2="2.349" gradientUnits="objectBoundingBox">
      <stop offset="0.01"/>
      <stop offset="0.13" stop-opacity="0.69"/>
      <stop offset="0.25" stop-opacity="0.322"/>
      <stop offset="1" stop-opacity="0"/>
    </linearGradient>
    <linearGradient id="linear-gradient-3" x1="0.511" y1="-0.816" x2="0.472" y2="4.395" xlink:href="#linear-gradient-2"/>
    <linearGradient id="linear-gradient-4" x1="0.187" y1="2.304" x2="1.013" y2="-1.941" xlink:href="#linear-gradient-2"/>
    <linearGradient id="linear-gradient-5" x1="-1.938" y1="0.256" x2="8.505" y2="0.858" xlink:href="#linear-gradient-2"/>
    <linearGradient id="linear-gradient-6" x1="-0.117" y1="-2.255" x2="1.827" y2="5.144" xlink:href="#linear-gradient-2"/>
  </defs>
  <g id="linkedin_monochromatic" transform="translate(0.006 -0.001)">
    <path id="Path_69" data-name="Path 69" d="M153.29,51.08c-18,9.66-31.1,27.33-36.94,46.9-3.45,11.58-4.53,23.81-8.46,35.23-11.21,32.51-43.5,53.66-57.27,85.17-7.67,17.54-9,38-2.53,56S69,307.67,87,314c11.06,3.9,23,4.48,34.69,4.85,22,.7,44.09.78,65.7-3.12,10.3-1.85,20.44-4.61,30.83-5.81,20.1-2.33,40.62,1.21,60.6-2,13.91-2.26,27.09-7.74,39.69-14.06,9.45-4.74,18.75-10,26.55-17.2,20.63-18.92,28.27-49.61,22.73-77.05s-23-51.55-44.89-69c-9.65-7.65-20.15-14.13-30.26-21.15a338.3,338.3,0,0,1-37-29.78C227.85,53.93,192,30.33,153.29,51.08Z" transform="translate(-43.96 -43.14)" fill="#26a178" opacity="0.18"/>
    <path id="Path_70" data-name="Path 70" d="M116.86,234.61h76.2l-13.49-48.45H128.24Z" fill="#26a178"/>
    <path id="Path_71" data-name="Path 71" d="M116.86,234.61h76.2l-13.49-48.45H128.24Z" fill="url(#linear-gradient)"/>
    <path id="Path_72" data-name="Path 72" d="M313,99.82v125a13.67,13.67,0,0,1-13.68,13.67H101.92a13.66,13.66,0,0,1-13.67-13.67v-125a13.67,13.67,0,0,1,13.67-13.67H299.36A13.67,13.67,0,0,1,313,99.82Z" transform="translate(-43.96 -43.14)" fill="#26a178"/>
    <path id="Path_73" data-name="Path 73" d="M313,99.82V209.4H88.25V99.82a13.69,13.69,0,0,1,13.68-13.68H299.37A13.68,13.68,0,0,1,313,99.82Z" transform="translate(-43.96 -43.14)" fill="#473f47"/>
    <path id="Path_74" data-name="Path 74" d="M309.66,102.43V205.74h-218V102.43A13.2,13.2,0,0,1,104.9,89.31H296.4A13.2,13.2,0,0,1,309.66,102.43Z" transform="translate(-43.96 -43.14)" fill="#fff"/>
    <path id="Path_75" data-name="Path 75" d="M309.66,102.43V205.74h-218V102.43A13.2,13.2,0,0,1,104.9,89.31H296.39a13.2,13.2,0,0,1,13.27,13.12Z" transform="translate(-43.96 -43.14)" fill="#26a178" opacity="0.18"/>
    <rect id="Rectangle_13" data-name="Rectangle 13" width="216.16" height="50.64" transform="translate(47.68 112.74)" fill="#fff"/>
    <rect id="Rectangle_14" data-name="Rectangle 14" width="59.94" height="60.6" transform="translate(196.2 96.58)" fill="url(#linear-gradient-2)"/>
    <line id="Line_2" data-name="Line 2" x1="30.25" y1="16.49" transform="translate(201.4 86.6)" fill="none"/>
    <path id="Path_76" data-name="Path 76" d="M309.66,102.43v19.08h-218V102.43A13.2,13.2,0,0,1,104.9,89.31H296.39a13.2,13.2,0,0,1,13.27,13.12Z" transform="translate(-43.96 -43.14)" fill="#26a178"/>
    <path id="Path_77" data-name="Path 77" d="M309.66,102.43v19.08h-218V102.43A13.2,13.2,0,0,1,104.9,89.31H296.39a13.2,13.2,0,0,1,13.27,13.12Z" transform="translate(-43.96 -43.14)" fill="url(#linear-gradient-3)"/>
    <rect id="Rectangle_15" data-name="Rectangle 15" width="59.94" height="60.6" transform="translate(200.26 92.94)" fill="#fff"/>
    <rect id="Rectangle_16" data-name="Rectangle 16" width="53.68" height="52.37" transform="translate(203.39 97.51)" fill="#26a178" opacity="0.18"/>
    <circle id="Ellipse_1" data-name="Ellipse 1" cx="4.86" cy="4.86" r="4.86" transform="translate(242.64 102.68)" fill="#26a178"/>
    <path id="Path_78" data-name="Path 78" d="M203.39,126.88l13.14-9.67,16.7,9.67h3.52l-12.11-7.13,9.89-7.55,23.84,13.97v23.71H203.39Z" fill="url(#linear-gradient-4)"/>
    <path id="Path_79" data-name="Path 79" d="M313.37,182.36a7.46,7.46,0,0,1,3.69,3.53,2.67,2.67,0,0,1-.19,2.81,2.52,2.52,0,0,1-2,.72,8.09,8.09,0,0,1-3.13-.89c-.88-.39-1.75-.82-2.62-1.24a4.09,4.09,0,0,1-1.4-.95,3.57,3.57,0,0,1-.56-2.57c.06-.87.38-3.07,1.53-3.16a7.649,7.649,0,0,1,2.23.76,20.764,20.764,0,0,1,2.45.99Z" transform="translate(-43.96 -43.14)" fill="#ffbaaa"/>
    <path id="Path_80" data-name="Path 80" d="M309.45,180.37a34.439,34.439,0,0,1-.35,7.92,16.74,16.74,0,0,1-6-2.95,11.889,11.889,0,0,1-2.28-1.83,7.33,7.33,0,0,1-1.59-3.54c-.35-2-2.13-6.88.35-5.7S306.94,179,309.45,180.37Z" transform="translate(-43.96 -43.14)" fill="#26a178"/>
    <path id="Path_81" data-name="Path 81" d="M291,244.55a51.072,51.072,0,0,0,5.58,7.36,113.993,113.993,0,0,0,10.22,9.43c1.77,1.52,3.54,3.06,5.24,4.67,1.41,1.33,3.21,2.25,3.56,4.33.21,1.22,0,2.69.92,3.52A2.27,2.27,0,0,0,319,274a5.26,5.26,0,0,0,1.85-1.84,2.82,2.82,0,0,0,.45-.9,2.36,2.36,0,0,0,0-1.09c-.38-1.71-1.7-3-2.86-4.32a28.267,28.267,0,0,1-2.79-3.75,21.292,21.292,0,0,0-2.42-2.86l-6.78-7.64c-2.44-2.75-4.94-5.6-6-9.09a14.67,14.67,0,0,0-1.44-3.93c-1.74-2.54-5.8-2.92-8.46-1.72C287.18,238.36,289.65,242.47,291,244.55Z" transform="translate(-43.96 -43.14)" fill="#ffbaaa"/>
    <path id="Path_82" data-name="Path 82" d="M305,239.53s1.76,15.36,0,23.67a66,66,0,0,0-1.37,15.56,1.93,1.93,0,0,1-.83,2.53,5.46,5.46,0,0,1-2.86.62l-4,.15a1.64,1.64,0,0,1-1.34-.35c-.52-.57,0-1.53.71-1.87a22.856,22.856,0,0,0,2.2-.77c1.26-.76,1.42-2.49,1.45-4l.1-6.44c.15-9.25.3-18.55-1.11-27.69a3,3,0,0,1,0-1.26c.2-.76.94-1.23,1.62-1.63a6.65,6.65,0,0,1,2.43-1,2.28,2.28,0,0,1,2.29,1" transform="translate(-43.96 -43.14)" fill="#ffbaaa"/>
    <path id="Path_83" data-name="Path 83" d="M283.08,182.94a1.12,1.12,0,0,0-.42-.25c-.9-.26-2.71,1-3.51,1.34a19.16,19.16,0,0,1-8.27,1.6,36.869,36.869,0,0,1-7.58-1.75c-3.18-.89-6.43-1.47-9.56-2.5a19.12,19.12,0,0,1-8.39-5c-.52.37-.15,1.39-.7,1.71s-1-.32-1.59-.37c-2.12-.18-.79,5.21-.47,6.1a1.2,1.2,0,0,0,.31.55,1.44,1.44,0,0,0,.63.25c7.56,1.6,14.19,6.29,21.76,7.87a28.11,28.11,0,0,0,11.41-.05,22,22,0,0,0,9.94-4.61c.25-.2.53-.53.36-.8a.66.66,0,0,0-.37-.26,5.7,5.7,0,0,1-2.32-1.6C283.83,184.55,283.63,183.46,283.08,182.94Z" transform="translate(-43.96 -43.14)" fill="#ffbaaa"/>
    <path id="Path_84" data-name="Path 84" d="M288.84,167.63A2.91,2.91,0,0,0,291,169.1a1,1,0,0,1,.66.14.82.82,0,0,1,.16.69l-.24,3a1.17,1.17,0,0,0,.1.72,1.19,1.19,0,0,0,.72.41c1.1.3,2.46.53,3.23-.3a3.13,3.13,0,0,0,.63-1.67c.59-3.46,1.15-7,.62-10.46-.32-2.1-1.16-4.3-3-5.4-2.09-1.26-7.48-1.65-7.25,1.87a40.174,40.174,0,0,1,.45,4.26,8.58,8.58,0,0,0,1.76,5.27Z" transform="translate(-43.96 -43.14)" fill="#ffbaaa"/>
    <path id="Path_85" data-name="Path 85" d="M286.52,155.28c-.13.52-.22,1.07-.33,1.61l-.13.69a.41.41,0,0,0,0,.22.34.34,0,0,0,.22.14l1.88.62a.59.59,0,0,0,.41,0,.6.6,0,0,0,.25-.2l.78-.89.09.9a.32.32,0,0,0,.08.21.29.29,0,0,0,.16.07l3.54.83.22-.52a29.85,29.85,0,0,1-.12,10.41,14.88,14.88,0,0,0,8.74-.1,2.78,2.78,0,0,0,1.07-.54,2.84,2.84,0,0,0,.72-1.33,16.19,16.19,0,0,0-1.56-13,6.45,6.45,0,0,0-5.46-3.57,14.88,14.88,0,0,0-6.83.46,6.18,6.18,0,0,0-2.72,1.79,5.119,5.119,0,0,0-1.01,2.2Z" transform="translate(-43.96 -43.14)" fill="#fb682d"/>
    <path id="Path_86" data-name="Path 86" d="M290,205.09c.23,7.51-2.5,14.57-4.55,21.79-.9,3.14-1.9,6.37-1.57,9.61a2.273,2.273,0,0,0,0,.26c9.9,2.85,20.76,4.27,30.34.47a81.749,81.749,0,0,1-1.62-15.37,28.109,28.109,0,0,0-.42-6.08c-.77-3.41-3-6.31-5.28-9a9.5,9.5,0,0,1-2.14-3.23,8.83,8.83,0,0,1-.13-3.55,70,70,0,0,0,.27-11.67,28.239,28.239,0,0,0-2.68-10.16,13.88,13.88,0,0,0-2.65-3.93,6.81,6.81,0,0,0-4.2-2,4.53,4.53,0,0,0-4.11,1.91c-2.41,3.72-6.43,4.55-9.35,7.88a1.15,1.15,0,0,0-.33.61,1.19,1.19,0,0,0,.25.69l3.09,4.9a9.11,9.11,0,0,0,1.08,1.47h0c.37.38.81.69,1.17,1.07a7.86,7.86,0,0,1,1.69,4.11A66,66,0,0,1,290,205.09Z" transform="translate(-43.96 -43.14)" fill="#26a178"/>
    <path id="Path_87" data-name="Path 87" d="M293,280.74l1-.32a9.35,9.35,0,0,1,2.48-.55.78.78,0,0,1,.43.06,1,1,0,0,1,.38.45,1.88,1.88,0,0,0,.59.72,2,2,0,0,0,1.68,0,7.57,7.57,0,0,0,1.69-.61c.53-.3,1-.71,1.52-1a1.1,1.1,0,0,1,1-.08,1.21,1.21,0,0,1,.4.38,2.45,2.45,0,0,1,.49.82,2.53,2.53,0,0,1,0,.91,1.2,1.2,0,0,1-1.49,1.23l-4.88.31c-1.53.1-3.07.19-4.6.17a10,10,0,0,1-2.5-.27.3.3,0,0,1-.28-.19.38.38,0,0,1,0-.23,4.23,4.23,0,0,1,2.63-2" transform="translate(-43.96 -43.14)" fill="#26a178"/>
    <path id="Path_88" data-name="Path 88" d="M320.27,268.34c-.13.49,0,1-.12,1.52a3,3,0,0,1-.62,1l-1.19,1.47a1.871,1.871,0,0,1-.47.46,2,2,0,0,1-1.6-.05.51.51,0,0,0-.45,0,.59.59,0,0,0-.15.28l-.68,2.37a11.609,11.609,0,0,0-.46,3,.92.92,0,0,0,.36.28c1.09.55,2.94-1.9,3.86-2.69a8.19,8.19,0,0,0,2-3.05c.26-.6.51-1.2.74-1.81a5.549,5.549,0,0,0,.55-1.76.9.9,0,0,0-.49-.82C321.25,268.42,320.42,267.81,320.27,268.34Z" transform="translate(-43.96 -43.14)" fill="#26a178"/>
    <path id="Path_89" data-name="Path 89" d="M283.85,236.49a5.22,5.22,0,0,0,4.35-.43c2.27-1.42,3.17-4.26,3.59-6.89.9-5.79.37-12.08,3.41-17.07.93-1.52,2.23-3.06,2-4.84s-1.93-3.12-2.93-4.7a12.79,12.79,0,0,1-1.49-5.88q-.525-5.73-1-11.47c0,1-4.23,3-5.77,4.49.37.38.81.69,1.17,1.07a7.86,7.86,0,0,1,1.69,4.11,66,66,0,0,1,1.1,10.21c.23,7.51-2.5,14.57-4.55,21.79C284.52,230,283.52,233.25,283.85,236.49Z" transform="translate(-43.96 -43.14)" fill="url(#linear-gradient-5)"/>
    <path id="Path_90" data-name="Path 90" d="M135.94,121.65a13.9,13.9,0,1,1-4.071-9.869A13.94,13.94,0,0,1,135.94,121.65Z" transform="translate(-43.96 -43.14)" fill="#fff"/>
    <path id="Path_91" data-name="Path 91" d="M132.08,131.28a13.94,13.94,0,0,1-18.06,1.8l.68-2.46a4.07,4.07,0,0,1,3.91-3h1.57l5.86.11a6.56,6.56,0,0,1,4.66,2Z" transform="translate(-43.96 -43.14)" fill="#26a178"/>
    <path id="Path_92" data-name="Path 92" d="M116.23,125.31l10.56-.47s1-8.89-2.91-10.75c-3.62-1.74-6.48-.22-7.32,2.88S116.23,125.31,116.23,125.31Z" transform="translate(-43.96 -43.14)" fill="#fb682d"/>
    <path id="Path_93" data-name="Path 93" d="M120.18,125v2.69a4,4,0,0,0,0,.77,2.5,2.5,0,0,0,1.39,1.48,1.83,1.83,0,0,0,.79.25.9.9,0,0,0,.76-.29,1.47,1.47,0,0,0,.25-.65,3.25,3.25,0,0,0,.19-1.62c-.16-.45-.25-.94-.38-1.41l-.47-1.79Z" transform="translate(-43.96 -43.14)" fill="#ffbaaa"/>
    <path id="Path_94" data-name="Path 94" d="M120.26,125.94s1,2.08,2.14,1.85.69-2,.69-2Z" transform="translate(-43.96 -43.14)" fill="url(#linear-gradient-6)"/>
    <path id="Path_95" data-name="Path 95" d="M124.72,123.1a6.07,6.07,0,0,1-.9,2.18,2.65,2.65,0,0,1-2,1.16,2.72,2.72,0,0,1-1.58-.5c-1.78-1.14-2.53-3.39-2.65-5.51a5.69,5.69,0,0,1,1.48-4.64,4.08,4.08,0,0,1,5.67.7C125.92,118.2,125.17,121.29,124.72,123.1Z" transform="translate(-43.96 -43.14)" fill="#ffbaaa"/>
    <path id="Path_96" data-name="Path 96" d="M117.6,117.21l-.27,3h1l.39-1.88.22,1.88h1.85l.16-1.93.26,1.74h1.93v-1.81l.54,1.88h1.8s1.06-3.52-1.36-4.76S118.37,114.63,117.6,117.21Z" transform="translate(-43.96 -43.14)" fill="#fb682d"/>
    <rect id="Rectangle_17" data-name="Rectangle 17" width="42.8" height="2.25" rx="1.05" transform="translate(59.79 99.2)" fill="#26a178"/>
    <rect id="Rectangle_18" data-name="Rectangle 18" width="29.19" height="2.25" rx="0.86" transform="translate(59.79 104.63)" fill="#26a178"/>
    <rect id="Rectangle_19" data-name="Rectangle 19" width="28.33" height="2.25" rx="0.85" transform="translate(94.05 104.63)" fill="#26a178"/>
    <rect id="Rectangle_20" data-name="Rectangle 20" width="28.33" height="2.25" rx="0.85" transform="translate(124.92 104.63)" fill="#26a178"/>
    <rect id="Rectangle_21" data-name="Rectangle 21" width="72.95" height="10.35" transform="translate(97.14 123.24)" fill="#26a178" opacity="0.18"/>
    <rect id="Rectangle_22" data-name="Rectangle 22" width="72.95" height="10.35" transform="translate(97.14 141.35)" fill="#26a178" opacity="0.18"/>
  </g>
</svg>
